PathFileType	4	(X/Y/Z)	c:/Users/goper/Files/vsCode/490R/osim_files/A03/A03_SSWS_05.trc
DataRate	CameraRate	NumFrames	NumMarkers	Units                	OrigDataRate	OrigDataStartFrame	OrigNumFrames
250.00	250.00	8	36	mm	250.0	1150	3066
                Frame#	Time	LPSIS			LASIS			LTH1			LTH2			LTH3			LTH4			LLFE			LMFE			LSH1			LSH2			LSH3			LSH4			LLMAL			LMMAL			LCAL			LMTP5			LTOE			LMTP1			RPSIS			RASIS			RTH1			RTH2			RTH3			RTH4			RLFE			RMFE			RSH1			RSH2			RSH3			RSH4			RLMAL			RMMAL			RCAL			RMTP1			RTOE			RMTP5		
		X1	Y1	Z1	X2	Y2	Z2	X3	Y3	Z3	X4	Y4	Z4	X5	Y5	Z5	X6	Y6	Z6	X7	Y7	Z7	X8	Y8	Z8	X9	Y9	Z9	X10	Y10	Z10	X11	Y11	Z11	X12	Y12	Z12	X13	Y13	Z13	X14	Y14	Z14	X15	Y15	Z15	X16	Y16	Z16	X17	Y17	Z17	X18	Y18	Z18	X19	Y19	Z19	X20	Y20	Z20	X21	Y21	Z21	X22	Y22	Z22	X23	Y23	Z23	X24	Y24	Z24	X25	Y25	Z25	X26	Y26	Z26	X27	Y27	Z27	X28	Y28	Z28	X29	Y29	Z29	X30	Y30	Z30	X31	Y31	Z31	X32	Y32	Z32	X33	Y33	Z33	X34	Y34	Z34	X35	Y35	Z35	X36	Y36	Z36

1150	4.59600	492.06973	1021.41626	250.36072	276.88403	939.01483	401.64758	346.78381	590.89136	479.50415	343.82367	547.96899	486.59509	285.98157	587.11871	473.72174	292.57355	544.03094	479.50751	356.94290	488.98297	479.40198	321.03946	458.42340	330.93091	450.08316	469.12018	462.82495	486.09299	437.44125	456.19577	415.65265	414.91205	466.11023	457.60519	394.46002	454.14484	734.83588	237.68826	386.72360	709.57251	227.50282	291.64227	780.88367	281.99905	322.25769	697.14447	83.27051	410.56384	642.55933	79.25071	350.94449	672.06818	85.33178	300.39752	482.38281	1027.19629	169.60370	220.75259	964.69922	106.74734	185.49661	607.08862	59.74112	169.39117	566.46875	70.28491	128.51093	625.21155	74.60683	119.31567	582.90674	81.64383	140.37286	539.89801	89.11849	122.27659	555.64783	211.44304	184.79399	468.89667	81.64918	183.33580	427.04584	71.77924	121.80495	462.67926	86.44662	129.51900	416.39932	77.53788	185.93350	122.84045	131.45299	155.92241	108.54856	216.78558	243.91994	86.26198	190.60233	29.87067	46.05783	221.37682	1.06539	69.78905	172.00671	39.42431	43.89752	102.60131
1151	4.60000	487.45206	1022.04309	249.74544	272.62885	939.98853	401.54922	337.19470	591.63214	479.59042	334.12183	548.69794	486.81989	276.28549	588.20514	474.09137	282.52859	545.06116	479.89026	346.52997	489.79752	479.60474	309.99744	457.97739	331.46066	439.68677	470.90411	462.48431	476.05505	439.65616	455.85175	405.88751	416.02936	466.66916	448.56628	396.92203	453.79086	727.21924	243.08122	385.86203	700.95923	231.48317	291.19305	772.03851	286.86829	320.91815	690.94025	87.93129	411.18033	636.29297	82.29870	352.13177	665.30634	88.96894	301.20309	477.75961	1028.17004	168.80794	215.89886	964.99097	106.34724	181.92790	606.69788	60.04929	166.63440	566.71075	70.21295	125.70192	625.77899	74.37743	116.43759	582.95099	81.61144	137.71234	539.96112	89.11420	119.80341	555.56079	211.46170	181.68924	468.66711	81.79973	181.32736	427.15884	72.03336	119.53693	462.44711	86.54041	128.17130	416.85358	77.21587	185.79140	122.94158	131.62535	155.93579	108.53516	217.00589	243.59470	85.72198	191.05324	29.82566	46.00631	221.45891	1.01566	69.65237	172.05341	39.42870	43.93147	102.63757
1152	4.60400	482.90912	1022.72522	249.20343	267.99628	940.86401	401.24982	327.70105	592.37537	479.54257	324.07956	549.40924	486.84366	266.71664	589.44775	474.29001	272.70370	546.28076	480.20016	336.25711	490.97842	479.70126	298.79019	457.90402	332.04047	429.33395	472.93478	462.05090	466.05618	442.06805	455.38931	396.21964	418.05301	466.44510	438.99619	398.96356	453.77158	719.30957	247.85370	385.21780	691.43884	234.94948	291.04645	763.14667	291.36588	319.54663	683.83551	92.91419	411.81876	629.40271	85.48787	353.41537	657.46173	92.82899	302.02264	473.19547	1029.13501	168.10901	211.80542	965.49384	105.82153	179.65565	607.70166	59.52783	163.98184	566.94812	70.10043	122.73618	625.81305	74.30439	113.70879	582.96558	81.57481	135.22148	540.31921	88.92690	117.34380	555.40027	211.45837	179.90472	468.89731	81.88751	179.53172	427.10156	71.84699	117.40609	462.20300	86.57504	125.69913	416.08200	77.72810	186.27466	123.49275	131.66647	156.05672	108.62482	217.24289	244.22415	85.93913	190.89597	29.80436	45.94527	221.52148	1.00077	69.57668	172.07327	39.42690	43.97461	102.65797
1153	4.60800	478.38535	1023.40692	248.69499	263.42215	941.86847	400.88867	318.39865	593.31311	479.44312	314.61499	550.49323	486.86707	257.31326	590.88220	474.45709	262.99573	547.67908	480.36707	326.00888	492.52365	479.74234	287.75699	458.20322	332.48480	418.99515	475.16586	461.60431	456.03662	444.64471	454.91956	386.45938	420.01288	466.61105	429.36050	401.30365	453.73599	710.57379	252.46083	384.45404	682.43359	239.19235	289.90369	753.96405	295.52063	318.15048	676.83337	97.36118	413.18027	621.87848	88.76766	354.74695	648.76141	96.44800	303.08289	468.66705	1030.11084	167.50696	207.15997	965.90057	105.37630	176.84215	607.94019	59.48470	161.38884	567.11395	70.01793	119.84817	625.79443	74.28072	111.06927	582.92865	81.48148	132.91158	540.00861	89.09912	114.93233	555.21875	211.47115	177.80327	468.90445	81.88817	177.58490	427.18591	71.98060	115.32795	461.90747	86.60160	123.81657	415.79251	77.82008	186.16693	123.61877	131.78780	156.04694	108.61657	217.40248	244.60402	86.43590	190.63792	30.02567	45.89434	221.58139	1.00110	69.45684	172.12714	39.46767	44.01865	102.69514
1154	4.61200	474.38538	1024.32910	248.16957	258.77899	942.93091	400.55408	309.21091	594.53687	479.38724	304.81961	551.63025	486.79340	248.02106	592.53015	474.49417	253.33525	549.30872	480.47391	315.83771	494.45599	479.76941	276.88049	458.95471	332.84338	408.72580	477.63684	461.09448	445.95929	447.35486	454.43320	376.70248	422.07748	467.04669	419.58719	403.76105	453.68842	701.55688	256.56613	383.76147	672.75421	242.57513	289.38852	744.11414	299.36917	316.77161	668.90027	101.62942	413.91199	613.74457	92.04142	356.02988	639.99536	99.58547	304.06604	464.19492	1031.14246	166.98639	202.82278	966.37250	104.99393	174.15120	608.14563	59.37040	158.88313	567.21558	69.90880	116.82446	625.21106	74.41934	108.45280	582.83624	81.48529	130.58920	539.93811	89.07936	112.59058	554.96027	211.42580	175.80205	468.93579	81.73544	174.94472	427.13727	72.02708	112.79977	461.44772	86.85557	122.07966	415.57864	77.86031	186.04514	123.71548	131.90871	156.10191	108.65493	217.58557	244.83354	86.71574	190.52307	29.79769	45.80715	221.65994	1.04221	69.33888	172.17427	39.47789	44.05773	102.70403
1155	4.61600	469.40308	1024.90344	247.99049	254.14294	944.01080	400.21741	299.88849	595.89197	479.23990	295.26859	553.08063	486.82379	238.77127	594.42194	474.37003	243.73848	551.16180	480.50662	305.69019	496.64175	479.73553	265.88583	460.09277	333.18646	398.43951	480.23608	460.52982	435.85800	450.13486	453.87103	366.72803	424.68307	466.87534	409.73499	406.40283	453.59778	692.49835	260.72235	383.49637	662.81445	245.49997	288.83585	733.88885	302.95697	315.42184	660.93176	105.32622	414.55017	605.13812	95.08776	357.03912	631.26044	102.16187	304.92764	459.77771	1032.15088	166.50092	198.46631	966.86310	104.60887	170.91614	607.58661	59.64628	156.38472	567.19067	69.88494	114.33089	625.56287	74.24635	105.95428	582.66400	81.45047	128.27727	539.79767	89.08463	110.22681	554.76807	211.44363	173.59138	468.74408	81.41709	173.28654	427.09824	71.97866	110.82447	461.10989	86.87989	120.25312	415.27072	77.97361	185.90251	123.77193	131.99889	156.12514	108.66682	217.73122	244.85916	86.67912	190.56993	29.80702	45.79809	221.73051	1.02999	69.28453	172.18156	39.51162	44.10309	102.73203
1156	4.62000	464.96075	1025.72900	247.66953	249.38940	945.22693	399.88861	291.16513	597.62878	479.44138	285.71918	554.77405	486.85254	229.64250	596.56201	474.14224	234.16066	553.32794	480.52341	295.50177	498.97260	479.63678	254.84439	461.40390	333.49731	387.90552	482.61072	460.02023	425.99399	453.06293	453.35059	356.72546	427.16589	466.89349	399.76566	409.02173	453.50397	682.59253	264.07605	382.65009	652.68976	248.09250	288.08652	723.34082	306.16437	314.13672	652.45135	108.69805	414.97330	596.12952	97.87843	357.75961	622.33844	104.48399	305.57706	455.44446	1033.19983	166.11310	194.34140	967.37494	104.28277	168.80687	608.27618	59.20890	153.97310	567.10376	69.85534	110.99044	624.67334	74.91054	103.45956	582.43170	81.45156	126.03780	539.58612	89.12306	107.92451	554.56506	211.46219	171.61864	468.71530	81.20554	171.66808	427.09387	71.84253	109.40441	460.94669	86.62149	119.00533	415.44983	77.64386	185.79201	123.83451	132.08945	156.02196	108.61979	217.78384	244.85832	86.70242	190.58957	29.78571	45.78347	221.77377	1.00506	69.26524	172.19485	39.51487	44.14985	102.76306
1157	4.62400	460.56616	1026.65833	247.37331	245.75314	946.49359	399.63156	281.70721	599.17609	478.81641	276.20792	556.61945	486.82297	220.59634	598.94818	473.91034	224.61829	555.73218	480.50061	285.28061	501.24991	479.54449	243.96811	462.81433	333.73816	377.70612	485.15860	459.47516	415.73459	455.67139	452.84671	346.72089	429.55954	467.17050	388.87073	410.60968	453.15939	672.53979	267.22385	381.77859	642.38531	250.50047	287.44116	712.77704	309.10892	312.78424	643.36017	111.94233	415.33319	586.76379	100.44505	358.24081	612.90692	106.75425	306.09387	451.00818	1034.22180	165.75011	190.28596	968.05774	103.94826	165.68329	607.55963	59.47580	151.63196	566.96539	69.85712	108.37229	624.38702	74.90105	101.07435	582.15515	81.48660	123.84413	539.35638	89.14453	105.65509	554.31476	211.40437	169.74307	468.67969	80.92822	169.98708	426.99469	71.66813	107.09524	460.50583	86.87836	116.93460	414.67770	78.06514	186.16032	123.92884	132.17441	156.06110	108.62977	217.89685	244.88733	86.70853	190.64308	29.75686	45.76155	221.79248	1.01545	69.23992	172.18579	39.53761	44.19275	102.76990
